<?xml version="1.0" encoding="utf-8"?>
<!-- Generator: Adobe Illustrator 15.0.0, SVG Export Plug-In . SVG Version: 6.00 Build 0)  -->
<!DOCTYPE svg PUBLIC "-//W3C//DTD SVG 1.1//EN" "http://www.w3.org/Graphics/SVG/1.1/DTD/svg11.dtd">
<svg version="1.1" id="Шар_1" xmlns="http://www.w3.org/2000/svg" xmlns:xlink="http://www.w3.org/1999/xlink" x="0px" y="0px"
	 width="21.063px" height="21.07px" viewBox="0 0 21.063 21.07" enable-background="new 0 0 21.063 21.07" xml:space="preserve">
<path id="D" fill="#FFFFFF" d="M15.952,11.86c0.523-0.002,1.047,0.031,1.566,0.1c0.516,0.08,1.05,0.17,1.6,0.29
	c-0.25,1.218-0.746,2.371-1.458,3.391c-0.704,1-1.62,1.833-2.682,2.439c-0.12-1.03-0.282-2.04-0.486-3.04
	c-0.208-1.006-0.479-1.998-0.81-2.97c0.747-0.141,1.507-0.211,2.268-0.21l0,0H15.952z M8.266,14.54
	c1.12-0.882,2.379-1.571,3.726-2.04c0.339,1.022,0.616,2.064,0.828,3.12c0.218,1.077,0.374,2.165,0.468,3.26
	c-0.442,0.16-0.901,0.274-1.368,0.34c-0.464,0.061-0.932,0.091-1.399,0.091c-1.84-0.013-3.633-0.577-5.148-1.62
	C6.16,16.49,7.136,15.427,8.266,14.54L8.266,14.54z M12.802,9.66c-0.087-0.246-0.189-0.486-0.307-0.72
	c1.896-0.872,3.665-2,5.256-3.351c0.476,0.736,0.856,1.529,1.134,2.36c0.276,0.829,0.416,1.696,0.414,2.57
	c-0.575-0.141-1.14-0.25-1.691-0.34c-0.549-0.08-1.103-0.12-1.656-0.12c-0.468,0.001-0.936,0.03-1.4,0.09
	c-0.479,0.06-0.96,0.13-1.439,0.229C12.994,10.147,12.89,9.906,12.802,9.66L12.802,9.66z M11.74,7.32
	C10.738,5.477,9.569,3.729,8.248,2.1c0.736-0.216,1.501-0.323,2.269-0.32c1.129-0.006,2.249,0.212,3.294,0.64
	c1.028,0.431,1.974,1.04,2.79,1.801C15.145,5.492,13.507,6.537,11.74,7.32L11.74,7.32L11.74,7.32z M6.574,8.92
	C5.391,9.128,4.193,9.231,2.992,9.23H1.804c0.224-1.382,0.772-2.691,1.6-3.82C4.213,4.3,5.266,3.389,6.482,2.75
	c1.403,1.599,2.623,3.35,3.636,5.221C8.969,8.394,7.782,8.713,6.574,8.92z M6.412,0.84C3.894,1.91,1.893,3.919,0.832,6.44
	c-0.554,1.288-0.835,2.678-0.828,4.08c-0.01,1.419,0.272,2.824,0.828,4.13c1.066,2.516,3.066,4.52,5.58,5.59
	c2.624,1.106,5.584,1.106,8.208,0c1.247-0.533,2.383-1.297,3.349-2.25c1.997-1.971,3.114-4.664,3.1-7.47
	c0.008-1.402-0.274-2.792-0.828-4.08c-0.53-1.254-1.301-2.393-2.268-3.351c-0.966-0.953-2.102-1.716-3.349-2.25
	C11.999-0.268,9.037-0.268,6.412,0.84L6.412,0.84z M7.276,13.03c-1.255,0.952-2.337,2.112-3.2,3.43
	c-0.694-0.737-1.255-1.59-1.656-2.52c-0.409-0.941-0.63-1.954-0.647-2.98c0.216,0,0.426,0.011,0.63,0.03
	c0.196,0.028,0.396,0.041,0.594,0.04c1.334,0.001,2.666-0.119,3.979-0.36c1.33-0.246,2.638-0.607,3.905-1.079
	c0.072,0.189,0.15,0.399,0.234,0.63c0.079,0.22,0.182,0.432,0.306,0.63C9.927,11.341,8.526,12.078,7.276,13.03L7.276,13.03z"/>
</svg>
