<?xml version="1.0" encoding="utf-8"?>
<!-- Generator: Adobe Illustrator 15.0.0, SVG Export Plug-In . SVG Version: 6.00 Build 0)  -->
<!DOCTYPE svg PUBLIC "-//W3C//DTD SVG 1.1//EN" "http://www.w3.org/Graphics/SVG/1.1/DTD/svg11.dtd">
<svg version="1.1" id="Шар_1" xmlns="http://www.w3.org/2000/svg" xmlns:xlink="http://www.w3.org/1999/xlink" x="0px" y="0px"
	 width="25.563px" height="15.871px" viewBox="0 0 25.563 15.871" enable-background="new 0 0 25.563 15.871" xml:space="preserve">
<path id="e" fill="#FFFFFF" d="M8.644,12.81c-0.509,0.227-1.064,0.326-1.62,0.29H3.64V8.89h3.456c0.3-0.004,0.601,0.01,0.899,0.04
	c0.231,0.009,0.456,0.081,0.648,0.21c0.675,0.28,1.096,0.961,1.044,1.689C9.796,11.644,9.377,12.439,8.644,12.81L8.644,12.81
	L8.644,12.81z M22.432,8.57H17.32c0.11-0.647,0.383-1.256,0.792-1.77c0.481-0.46,1.135-0.696,1.8-0.65
	c0.635-0.001,1.254,0.203,1.764,0.58C22.123,7.244,22.388,7.89,22.432,8.57L22.432,8.57L22.432,8.57z M0.004,0v15.871h7.128
	c0.403,0.004,0.806-0.013,1.206-0.051c0.372-0.04,0.727-0.08,1.063-0.13c0.336-0.12,0.654-0.239,0.954-0.37
	c0.288-0.131,0.56-0.295,0.81-0.49c0.454-0.334,0.844-0.748,1.152-1.22c0.463-0.759,0.712-1.63,0.72-2.521
	c0.013-0.825-0.213-1.637-0.648-2.34C12.2,8.416,11.942,8.126,11.632,7.9c-0.322-0.238-0.673-0.436-1.044-0.59
	c0.241-0.11,0.471-0.244,0.685-0.4c0.186-0.136,0.345-0.305,0.468-0.5c0.56-0.647,0.844-1.487,0.792-2.34
	c0.021-0.85-0.231-1.685-0.72-2.38C10.793,0.481,9.246-0.15,7.672,0H0.004L0.004,0z M14.26,9.791c0,2.109,0.564,3.646,1.692,4.609
	c1.157,0.883,2.577,1.351,4.032,1.33c0.839,0.014,1.674-0.121,2.466-0.4c0.702-0.241,1.328-0.662,1.818-1.22
	c0.58-0.542,0.961-1.265,1.08-2.05h-3.024c-0.121,0.307-0.335,0.569-0.612,0.75c-0.477,0.359-1.059,0.549-1.655,0.54
	c-0.576,0.03-1.146-0.132-1.62-0.46c-0.364-0.226-0.662-0.543-0.864-0.92c-0.229-0.452-0.34-0.954-0.324-1.461h8.316
	c0-0.479-0.013-0.909-0.036-1.279c-0.018-0.318-0.054-0.636-0.108-0.95c-0.064-0.432-0.179-0.855-0.342-1.26
	c-0.155-0.388-0.342-0.762-0.558-1.12c-0.24-0.38-0.538-0.72-0.882-1.01c-0.329-0.265-0.685-0.493-1.063-0.68
	c-0.846-0.342-1.752-0.512-2.664-0.5c-1.511-0.076-2.985,0.482-4.067,1.54C14.738,6.495,14.169,8.127,14.26,9.791L14.26,9.791
	L14.26,9.791z M16.672,0.65v1.62h6.341V0.65H16.672z M7.96,6.12C7.654,6.197,7.34,6.234,7.024,6.23H3.64v-3.5h2.987
	c0.35-0.003,0.699,0.024,1.044,0.08C7.952,2.848,8.229,2.908,8.5,2.99c0.573,0.254,0.921,0.845,0.864,1.47
	c0.063,0.543-0.188,1.075-0.648,1.37C8.474,5.952,8.221,6.049,7.96,6.12z"/>
</svg>
