<?xml version="1.0" encoding="utf-8"?>
<!-- Generator: Adobe Illustrator 15.0.0, SVG Export Plug-In . SVG Version: 6.00 Build 0)  -->
<!DOCTYPE svg PUBLIC "-//W3C//DTD SVG 1.1//EN" "http://www.w3.org/Graphics/SVG/1.1/DTD/svg11.dtd">
<svg version="1.1" id="Шар_1" xmlns="http://www.w3.org/2000/svg" xmlns:xlink="http://www.w3.org/1999/xlink" x="0px" y="0px"
	 width="11.656px" height="21.871px" viewBox="0 0 11.656 21.871" enable-background="new 0 0 11.656 21.871" xml:space="preserve">
<path id="g" fill="#FFFFFF" d="M3.912,7.6C3.024,6.716,3.021,5.28,3.905,4.393c0.883-0.888,2.319-0.891,3.207-0.007
	C8,5.269,8.003,6.705,7.119,7.593C7.117,7.595,7.114,7.598,7.111,7.6C6.22,8.464,4.804,8.464,3.912,7.6z M4.002,18.541
	c-0.451-0.244-0.739-0.709-0.756-1.221c0.021-0.516,0.307-0.984,0.756-1.24c1.126-0.693,2.547-0.693,3.672,0
	c0.449,0.256,0.734,0.725,0.756,1.24c-0.018,0.512-0.305,0.977-0.756,1.221c-1.13,0.68-2.544,0.68-3.674,0H4.002z M2.346,13.679
	c-0.683,0.378-1.268,0.908-1.71,1.551c-0.417,0.617-0.637,1.346-0.63,2.09c-0.001,0.615,0.153,1.221,0.45,1.76
	c0.304,0.564,0.728,1.057,1.242,1.44c0.559,0.429,1.186,0.759,1.854,0.979c1.486,0.48,3.086,0.48,4.572,0
	c0.669-0.221,1.295-0.551,1.854-0.979c0.514-0.384,0.938-0.876,1.242-1.44c0.6-1.096,0.6-2.423,0-3.52
	c-0.305-0.564-0.729-1.057-1.242-1.439c-0.56-0.429-1.186-0.76-1.854-0.98c-0.737-0.244-1.509-0.366-2.286-0.359H5.37
	c-0.125-0.309-0.186-0.639-0.18-0.971c0.003-0.205,0.021-0.408,0.054-0.61c-0.013-0.133,0.033-0.264,0.126-0.36h0.142
	c0.649,0.003,1.292-0.126,1.89-0.38C8.57,9.968,9.501,9.039,9.994,7.87c0.254-0.598,0.382-1.241,0.378-1.89
	c-0.015-0.667-0.241-1.311-0.647-1.84l1.691-0.9V0L7.924,1.95C7.543,1.695,7.133,1.49,6.7,1.34C6.272,1.188,5.821,1.114,5.368,1.12
	C4.096,1.123,2.877,1.635,1.984,2.54C1.55,2.99,1.202,3.515,0.958,4.09C0.705,4.688,0.576,5.331,0.58,5.98
	c-0.009,0.733,0.162,1.458,0.5,2.11c0.331,0.626,0.784,1.181,1.332,1.63c-0.598,1.247-0.625,2.691-0.072,3.96l0,0L2.346,13.679z"/>
</svg>
