<?xml version="1.0" encoding="utf-8"?>
<!-- Generator: Adobe Illustrator 15.0.0, SVG Export Plug-In . SVG Version: 6.00 Build 0)  -->
<!DOCTYPE svg PUBLIC "-//W3C//DTD SVG 1.1//EN" "http://www.w3.org/Graphics/SVG/1.1/DTD/svg11.dtd">
<svg version="1.1" id="Шар_1" xmlns="http://www.w3.org/2000/svg" xmlns:xlink="http://www.w3.org/1999/xlink" x="0px" y="0px"
	 width="14.25px" height="15.879px" viewBox="0 0 14.25 15.879" enable-background="new 0 0 14.25 15.879" xml:space="preserve">
<path id="I" fill="#FFFFFF" d="M0.549,0.59c-0.728,0.776-0.728,1.984,0,2.76c0.355,0.368,0.847,0.571,1.358,0.56
	C2.985,3.899,3.85,3.016,3.838,1.938C3.833,1.433,3.633,0.95,3.279,0.59C2.922,0.214,2.425,0.004,1.907,0.01
	C1.393,0.002,0.899,0.213,0.549,0.59z M4.987,5.05v10.839h3.136V8.95c0.23-0.221,0.495-0.404,0.784-0.54
	c0.259-0.113,0.532-0.187,0.812-0.22c0.322-0.034,0.646,0.037,0.924,0.2c0.167,0.064,0.299,0.195,0.364,0.361
	c0.099,0.16,0.155,0.342,0.168,0.529v6.609h3.08V9.28c-0.005-0.729-0.203-1.442-0.573-2.07c-0.355-0.646-0.885-1.179-1.526-1.54
	c-0.628-0.31-1.315-0.48-2.017-0.5c-0.694-0.05-1.39,0.084-2.016,0.39V5.05H4.987z M3.475,15.889V5.05H0.337v10.839h3.136H3.475z"/>
</svg>
