<?xml version="1.0" encoding="utf-8"?>
<!-- Generator: Adobe Illustrator 15.0.0, SVG Export Plug-In . SVG Version: 6.00 Build 0)  -->
<!DOCTYPE svg PUBLIC "-//W3C//DTD SVG 1.1//EN" "http://www.w3.org/Graphics/SVG/1.1/DTD/svg11.dtd">
<svg version="1.1" id="Шар_1" xmlns="http://www.w3.org/2000/svg" xmlns:xlink="http://www.w3.org/1999/xlink" x="0px" y="0px"
	 width="16.91px" height="16.689px" viewBox="0 0 16.91 16.689" enable-background="new 0 0 16.91 16.689" xml:space="preserve">
<path id="H" fill="#FFFFFF" d="M7.38,11.92c0.303,0.11,0.619,0.185,0.94,0.22c0.348,0.041,0.701,0.018,1.04-0.069
	c0.361-0.085,0.684-0.285,0.92-0.57c0.244-0.207,0.364-0.523,0.32-0.84c-0.073-0.255-0.236-0.476-0.46-0.62
	C9.857,9.852,9.547,9.71,9.22,9.62C8.868,9.518,8.511,9.435,8.15,9.37C7.638,9.289,7.133,9.168,6.64,9.011
	C6.141,8.849,5.667,8.62,5.23,8.33c-0.403-0.259-0.747-0.6-1.01-1c-0.255-0.411-0.358-0.9-0.29-1.38
	c0.02-0.48,0.143-0.951,0.36-1.38c0.195-0.382,0.459-0.725,0.78-1.01c0.318-0.271,0.68-0.487,1.07-0.64
	c0.383-0.158,0.788-0.26,1.2-0.3c0.901-0.107,1.814-0.039,2.689,0.2c0.704,0.209,1.353,0.571,1.9,1.06
	c0.275,0.203,0.486,0.48,0.609,0.8c0.078,0.239,0.092,0.494,0.041,0.74c-0.055,0.223-0.174,0.424-0.34,0.58
	c-0.154,0.146-0.351,0.237-0.561,0.26c-0.225,0.006-0.441-0.081-0.6-0.24c-0.211-0.17-0.461-0.38-0.73-0.609
	c-0.281-0.246-0.586-0.464-0.91-0.65C9.08,4.563,8.68,4.453,8.27,4.442c-0.434-0.011-0.862,0.097-1.24,0.31
	c-0.305,0.161-0.555,0.408-0.72,0.71c-0.134,0.266-0.114,0.583,0.05,0.83c0.267,0.343,0.659,0.565,1.09,0.62
	c0.56,0.15,1.12,0.28,1.68,0.391c0.542,0.104,1.073,0.255,1.59,0.45c0.479,0.176,0.928,0.426,1.33,0.74
	c0.403,0.325,0.712,0.754,0.89,1.24c0.223,0.481,0.272,1.025,0.141,1.54c-0.137,0.518-0.401,0.992-0.771,1.38
	c-0.399,0.422-0.879,0.762-1.41,1c-0.559,0.269-1.169,0.412-1.79,0.42c-0.542,0.042-1.088,0.039-1.63-0.01
	c-0.422-0.041-0.839-0.132-1.24-0.271c-0.343-0.12-0.671-0.277-0.98-0.47c-0.299-0.194-0.577-0.419-0.83-0.67
	c-0.25-0.234-0.444-0.521-0.57-0.84c-0.1-0.24-0.131-0.503-0.09-0.76c0.09-0.466,0.496-0.805,0.97-0.811
	c0.224-0.024,0.45,0.028,0.64,0.15c0.191,0.12,0.369,0.261,0.53,0.42c0.161,0.149,0.311,0.31,0.45,0.479
	c0.109,0.139,0.241,0.257,0.39,0.351C6.954,11.748,7.164,11.841,7.38,11.92z M2.81,0.38C2.265,0.611,1.77,0.943,1.35,1.36
	C0.487,2.233,0.005,3.412,0.01,4.64c-0.001,0.452,0.06,0.903,0.18,1.34c0.118,0.424,0.311,0.824,0.57,1.18
	C0.707,7.356,0.674,7.557,0.66,7.76c-0.01,0.2-0.01,0.399-0.01,0.6c-0.003,1.042,0.208,2.073,0.62,3.03
	c0.787,1.863,2.268,3.349,4.13,4.14c0.949,0.414,1.975,0.625,3.01,0.62c0.478-0.003,0.955-0.061,1.42-0.17
	c0.738,0.467,1.597,0.71,2.47,0.7c0.62,0.004,1.233-0.122,1.8-0.37c1.104-0.457,1.984-1.33,2.45-2.43
	c0.251-0.574,0.377-1.194,0.37-1.82c0.012-0.937-0.264-1.854-0.79-2.63c0.021-0.172,0.03-0.346,0.03-0.52v-0.55
	c0.008-1.028-0.199-2.048-0.61-2.99c-0.8-1.848-2.278-3.318-4.13-4.11c-0.953-0.4-1.977-0.604-3.01-0.6c-0.21,0-0.42,0.01-0.63,0.02
	C7.567,0.689,7.356,0.719,7.15,0.77C6.41,0.261,5.528-0.002,4.63,0.02C4.005,0.014,3.386,0.136,2.81,0.38z"/>
</svg>
