<?xml version="1.0" encoding="utf-8"?>
<!-- Generator: Adobe Illustrator 15.0.0, SVG Export Plug-In . SVG Version: 6.00 Build 0)  -->
<!DOCTYPE svg PUBLIC "-//W3C//DTD SVG 1.1//EN" "http://www.w3.org/Graphics/SVG/1.1/DTD/svg11.dtd">
<svg version="1.1" id="Шар_1" xmlns="http://www.w3.org/2000/svg" xmlns:xlink="http://www.w3.org/1999/xlink" x="0px" y="0px"
	 width="21.156px" height="17.221px" viewBox="0 0 21.156 17.221" enable-background="new 0 0 21.156 17.221" xml:space="preserve">
<path id="L" fill="#FFFFFF" d="M19.956,2.49c-0.425,0.125-0.86,0.212-1.3,0.26c0.877-0.565,1.547-1.4,1.908-2.38
	c-0.432,0.229-0.877,0.433-1.332,0.61c-0.463,0.188-0.947,0.322-1.44,0.399c-0.405-0.408-0.88-0.743-1.399-0.989
	c-1.091-0.493-2.337-0.507-3.438-0.04c-0.511,0.225-0.976,0.543-1.368,0.939c-0.401,0.4-0.72,0.876-0.936,1.4
	c-0.228,0.541-0.344,1.122-0.342,1.71c-0.002,0.316,0.034,0.632,0.108,0.939c-1.745-0.057-3.455-0.508-5-1.319
	C3.896,3.234,2.559,2.137,1.492,0.8C1.115,1.471,0.917,2.229,0.916,3c-0.011,0.728,0.161,1.446,0.5,2.09
	c0.339,0.621,0.835,1.143,1.44,1.51c-0.372,0.006-0.743-0.045-1.1-0.149C1.438,6.362,1.13,6.242,0.838,6.09v0.04
	C0.82,7.136,1.172,8.115,1.828,8.88c0.64,0.769,1.521,1.297,2.5,1.5c-0.192,0.05-0.378,0.08-0.558,0.11
	c-0.197,0.021-0.396,0.03-0.594,0.03c-0.268-0.001-0.534-0.038-0.792-0.11c0.257,0.857,0.781,1.61,1.494,2.15
	c0.73,0.558,1.62,0.865,2.538,0.88C4.899,14.662,3,15.309,1.052,15.27h-0.54c-0.167-0.001-0.334-0.011-0.5-0.03
	c0.982,0.621,2.042,1.111,3.15,1.46c1.138,0.347,2.32,0.521,3.51,0.52c1.821,0.039,3.626-0.345,5.273-1.12
	c1.467-0.697,2.777-1.684,3.853-2.899c1.034-1.17,1.841-2.523,2.376-3.99c0.525-1.401,0.8-2.884,0.811-4.38v-0.5
	c0.833-0.64,1.563-1.405,2.16-2.271C20.758,2.229,20.361,2.373,19.956,2.49z"/>
</svg>
